<?xml version="1.0" encoding="UTF-8"?>
<svg id="Livello_1" data-name="Livello 1" xmlns="http://www.w3.org/2000/svg" viewBox="0 0 308.51 308.57">
  <path d="m10.94,308.57c-6.04,0-10.94-4.9-10.94-10.94V10.94C0,4.9,4.9,0,10.94,0s10.94,4.9,10.94,10.94v286.7c0,6.04-4.9,10.94-10.94,10.94"/>
  <path d="m297.57,308.57c-6.04,0-10.94-4.9-10.94-10.94V10.94c0-6.04,4.9-10.94,10.94-10.94s10.94,4.9,10.94,10.94v286.7c0,6.04-4.9,10.94-10.94,10.94"/>
  <path d="m137.21,308.26c-4.66,0-8.97-2.99-10.43-7.67L37.23,14.64c-1.81-5.76,1.4-11.9,7.17-13.71,5.76-1.81,11.9,1.4,13.71,7.17l89.54,285.95c1.81,5.76-1.4,11.9-7.17,13.71-1.09.34-2.19.5-3.27.5"/>
  <path d="m171.24,308c-1.08,0-2.18-.16-3.27-.5-5.76-1.8-8.98-7.94-7.17-13.71L250.35,7.84c1.81-5.76,7.94-8.98,13.71-7.17,5.76,1.81,8.98,7.94,7.17,13.71l-89.54,285.95c-1.46,4.68-5.78,7.67-10.43,7.67"/>
</svg>